<?xml version="1.0" encoding="UTF-8"?>
<svg version="1.1" xmlns="http://www.w3.org/2000/svg" width="192" height="192">
<path d="M0 0 C63.36 0 126.72 0 192 0 C192 63.36 192 126.72 192 192 C128.64 192 65.28 192 0 192 C0 128.64 0 65.28 0 0 Z " fill="#B7DEEF" transform="translate(0,0)"/>
<path d="M0 0 C0.66 0 1.32 0 2 0 C2.33 1.98 2.66 3.96 3 6 C3.804375 6.144375 4.60875 6.28875 5.4375 6.4375 C8 7 8 7 9 8 C9.07271741 10.35313555 9.08370868 12.70833668 9.0625 15.0625 C9.05347656 16.35285156 9.04445312 17.64320312 9.03515625 18.97265625 C9.02355469 19.97167969 9.01195312 20.97070312 9 22 C8.67 22 8.34 22 8 22 C7.67 17.38 7.34 12.76 7 8 C5.02 8.99 5.02 8.99 3 10 C2.29464389 12.8786935 2.29464389 12.8786935 2.25 16.125 C2.19328125 17.22070312 2.1365625 18.31640625 2.078125 19.4453125 C2.05234375 20.28835937 2.0265625 21.13140625 2 22 C1.34 22 0.68 22 0 22 C-0.33 21.34 -0.66 20.68 -1 20 C-1.99 20.66 -2.98 21.32 -4 22 C-6.6875 22.125 -6.6875 22.125 -9 22 C-9.33 21.01 -9.66 20.02 -10 19 C-10.886875 19.495 -11.77375 19.99 -12.6875 20.5 C-15.90804369 21.95835941 -17.5544472 22.65186134 -21 22 C-23.28276734 20.18952935 -23.90092778 18.73964875 -24.28515625 15.87109375 C-24.42707815 12.12558968 -24.42047034 9.7183035 -22.5 6.4375 C-22.005 5.963125 -21.51 5.48875 -21 5 C-17.17902761 5.53069061 -14.93828597 6.49701566 -12 9 C-11.608125 8.34 -11.21625 7.68 -10.8125 7 C-9 5 -9 5 -6.5 4.5625 C-3.65233722 5.06084099 -2.76529621 5.77015215 -1 8 C-0.67 5.36 -0.34 2.72 0 0 Z " fill="#A7CCE0" transform="translate(163,85)"/>
<path d="M0 0 C62.37 0 124.74 0 189 0 C188.67 0.66 188.34 1.32 188 2 C187.05963237 1.99723462 186.11926474 1.99446924 185.15040112 1.99162006 C162.29186372 1.9250849 139.43333885 1.87575295 116.57472515 1.84456348 C105.52056631 1.82908043 94.46647136 1.80796347 83.41235352 1.77368164 C73.78000068 1.74382327 64.1476941 1.72443547 54.51529628 1.71773452 C49.41282064 1.71381621 44.31047736 1.70457787 39.20804405 1.68280983 C34.40890896 1.66250092 29.60996118 1.65615483 24.8107872 1.66067696 C23.04628673 1.65984924 21.28178022 1.65385036 19.51731682 1.64238358 C17.11402891 1.62752676 14.71145458 1.63102108 12.30815125 1.63923645 C11.60484623 1.63049793 10.90154122 1.6217594 10.17692393 1.61275607 C7.49743878 1.63763033 5.43831002 1.75818602 3.06816101 3.06578827 C1.42508045 6.04105666 1.57844708 8.99653955 1.60127258 12.30815125 C1.59462576 13.0580046 1.58797893 13.80785796 1.58113068 14.58043414 C1.56243575 17.10022771 1.56511027 19.61954916 1.56762695 22.1394043 C1.55861374 23.9427864 1.54828761 25.74616235 1.53674316 27.54953003 C1.50909524 32.45210463 1.49987809 37.35456324 1.49388909 42.25720572 C1.48452566 47.37820799 1.45832398 52.49912291 1.43388367 57.62007141 C1.39015897 67.32038769 1.36164871 77.02068707 1.33856028 86.72107202 C1.31154057 97.76330323 1.26762711 108.80544684 1.22227156 119.8476156 C1.12933979 142.56502962 1.05769816 165.28247111 1 188 C0.67 188 0.34 188 0 188 C0 125.96 0 63.92 0 0 Z " fill="#AED3E3" transform="translate(0,0)"/>
<path d="M0 0 C0.33 0 0.66 0 1 0 C1 2.31 1 4.62 1 7 C1.99 7 2.98 7 4 7 C4 7.99 4 8.98 4 10 C4.721875 9.154375 5.44375 8.30875 6.1875 7.4375 C9 5 9 5 11.6875 5 C14 6 14 6 16 9 C16.125 11.6875 16.125 11.6875 16 14 C13.36 14 10.72 14 8 14 C8.33 15.98 8.66 17.96 9 20 C10.32 20 11.64 20 13 20 C13.33 19.01 13.66 18.02 14 17 C14.33 17.99 14.66 18.98 15 20 C14.34 20.66 13.68 21.32 13 22 C10.17042171 21.63723355 7.70915709 20.90305236 5 20 C5 20.66 5 21.32 5 22 C3.68 22 2.36 22 1 22 C-0.20029908 19.59940183 -0.11459743 18.10639351 -0.09765625 15.4296875 C-0.09443359 14.53378906 -0.09121094 13.63789062 -0.08789062 12.71484375 C-0.07951172 11.77769531 -0.07113281 10.84054688 -0.0625 9.875 C-0.05798828 8.93011719 -0.05347656 7.98523438 -0.04882812 7.01171875 C-0.03702357 4.67441613 -0.02055759 2.33723939 0 0 Z " fill="#4D668B" transform="translate(111,85)"/>
<path d="M0 0 C0.66 0 1.32 0 2 0 C2.33 1.98 2.66 3.96 3 6 C3.804375 6.144375 4.60875 6.28875 5.4375 6.4375 C8 7 8 7 9 8 C9.07271741 10.35313555 9.08370868 12.70833668 9.0625 15.0625 C9.05347656 16.35285156 9.04445312 17.64320312 9.03515625 18.97265625 C9.02355469 19.97167969 9.01195312 20.97070312 9 22 C8.67 22 8.34 22 8 22 C7.67 17.38 7.34 12.76 7 8 C5.02 8.99 5.02 8.99 3 10 C2.29464389 12.8786935 2.29464389 12.8786935 2.25 16.125 C2.19328125 17.22070312 2.1365625 18.31640625 2.078125 19.4453125 C2.03945312 20.70988281 2.03945312 20.70988281 2 22 C1.34 22 0.68 22 0 22 C-0.66 20.68 -1.32 19.36 -2 18 C-2.66 18 -3.32 18 -4 18 C-4 18.66 -4 19.32 -4 20 C-6.4375 19.625 -6.4375 19.625 -9 19 C-10.50934217 15.98131566 -10.17510672 13.32702771 -10 10 C-9.34 9.01 -8.68 8.02 -8 7 C-7.401875 7.165 -6.80375 7.33 -6.1875 7.5 C-3.88655664 8.1114124 -3.88655664 8.1114124 -1 8 C-0.67 5.36 -0.34 2.72 0 0 Z " fill="#B0D6E8" transform="translate(163,85)"/>
<path d="M0 0 C1.32 0.33 2.64 0.66 4 1 C4.33 2.98 4.66 4.96 5 7 C8.3 7 11.6 7 15 7 C16.125 13.625 16.125 13.625 15 17 C13.35 17 11.7 17 10 17 C9.34 19.31 8.68 21.62 8 24 C7.01 23.67 6.02 23.34 5 23 C5 21.35 5 19.7 5 18 C6.32 18 7.64 18 9 18 C8.73323796 16.01508358 8.73323796 16.01508358 8 14 C7.01 13.67 6.02 13.34 5 13 C4.67 13.99 4.34 14.98 4 16 C2.68 15.67 1.36 15.34 0 15 C0 13.35 0 11.7 0 10 C0.99 9.67 1.98 9.34 3 9 C3 8.01 3 7.02 3 6 C2.01 5.67 1.02 5.34 0 5 C0 3.35 0 1.7 0 0 Z " fill="#6F8CAB" transform="translate(27,84)"/>
<path d="M0 0 C2.375 0.3125 2.375 0.3125 5 1 C7.42130331 4.63195496 7.21022785 6.38349348 7.125 10.6875 C7.10695313 11.86699219 7.08890625 13.04648438 7.0703125 14.26171875 C7.03550781 15.61716797 7.03550781 15.61716797 7 17 C4.1003917 17 1.78537511 16.78561862 -1 16 C-3.67548031 11.98677954 -3.58740465 8.71626345 -3 4 C-1.5 1.4375 -1.5 1.4375 0 0 Z " fill="#435B82" transform="translate(102,90)"/>
<path d="M0 0 C2.375 0.3125 2.375 0.3125 5 1 C7.67548031 5.01322046 7.58740465 8.28373655 7 13 C5.5 15.5625 5.5 15.5625 4 17 C1.625 16.6875 1.625 16.6875 -1 16 C-3.67548031 11.98677954 -3.58740465 8.71626345 -3 4 C-1.5 1.4375 -1.5 1.4375 0 0 Z " fill="#4A6288" transform="translate(80,90)"/>
<path d="M0 0 C4.75 0.75 4.75 0.75 7 3 C7.125 6.125 7.125 6.125 7 9 C4.36 9 1.72 9 -1 9 C-0.34 10.65 0.32 12.3 1 14 C1.99 14 2.98 14 4 14 C4.33 13.34 4.66 12.68 5 12 C5.66 12 6.32 12 7 12 C6.125 15.875 6.125 15.875 5 17 C2.625 17.3125 2.625 17.3125 0 17 C-2.28276734 15.18952935 -2.90092778 13.73964875 -3.28515625 10.87109375 C-3.42707815 7.12558968 -3.42047034 4.7183035 -1.5 1.4375 C-0.7575 0.7259375 -0.7575 0.7259375 0 0 Z " fill="#556F92" transform="translate(142,90)"/>
<path d="M0 0 C0.33 0 0.66 0 1 0 C1 2.31 1 4.62 1 7 C1.99 7 2.98 7 4 7 C4 7.99 4 8.98 4 10 C4.66 10.33 5.32 10.66 6 11 C6.4140625 13.06640625 6.4140625 13.06640625 6.625 15.5625 C6.69976562 16.38878906 6.77453125 17.21507813 6.8515625 18.06640625 C6.90054688 18.70449219 6.94953125 19.34257813 7 20 C6.34 20 5.68 20 5 20 C5 20.66 5 21.32 5 22 C3.68 22 2.36 22 1 22 C-0.20029908 19.59940183 -0.11459743 18.10639351 -0.09765625 15.4296875 C-0.09443359 14.53378906 -0.09121094 13.63789062 -0.08789062 12.71484375 C-0.07951172 11.77769531 -0.07113281 10.84054688 -0.0625 9.875 C-0.05798828 8.93011719 -0.05347656 7.98523438 -0.04882812 7.01171875 C-0.03702357 4.67441613 -0.02055759 2.33723939 0 0 Z " fill="#7B9AB6" transform="translate(111,85)"/>
<path d="M0 0 C0.66 0 1.32 0 2 0 C2.33 1.98 2.66 3.96 3 6 C3.804375 6.144375 4.60875 6.28875 5.4375 6.4375 C8 7 8 7 9 8 C9.07271741 10.35313555 9.08370868 12.70833668 9.0625 15.0625 C9.05347656 16.35285156 9.04445312 17.64320312 9.03515625 18.97265625 C9.02355469 19.97167969 9.01195312 20.97070312 9 22 C8.67 22 8.34 22 8 22 C7.67 17.38 7.34 12.76 7 8 C5.02 8.99 5.02 8.99 3 10 C2.29464389 12.8786935 2.29464389 12.8786935 2.25 16.125 C2.19328125 17.22070312 2.1365625 18.31640625 2.078125 19.4453125 C2.05234375 20.28835937 2.0265625 21.13140625 2 22 C1.34 22 0.68 22 0 22 C0 14.74 0 7.48 0 0 Z " fill="#4D668B" transform="translate(163,85)"/>
<path d="M0 0 C2.5 0.25 2.5 0.25 4.5 2.25 C4.6953125 5.5078125 4.6953125 5.5078125 4.625 9.375 C4.60695313 10.65632813 4.58890625 11.93765625 4.5703125 13.2578125 C4.54710938 14.24523437 4.52390625 15.23265625 4.5 16.25 C3.84 16.25 3.18 16.25 2.5 16.25 C2.17 11.96 1.84 7.67 1.5 3.25 C0.51 3.25 -0.48 3.25 -1.5 3.25 C-1.83 7.54 -2.16 11.83 -2.5 16.25 C-3.16 16.25 -3.82 16.25 -4.5 16.25 C-4.55384521 13.95858714 -4.59272087 11.66681812 -4.625 9.375 C-4.64820313 8.09882812 -4.67140625 6.82265625 -4.6953125 5.5078125 C-4.46039018 1.58930828 -4.00882901 0.4008829 0 0 Z " fill="#5E799B" transform="translate(59.5,90.75)"/>
<path d="M0 0 C2.5 -0.3125 2.5 -0.3125 5 0 C7 2 7 2 7.1953125 5.2578125 C7.16050781 7.17207031 7.16050781 7.17207031 7.125 9.125 C7.10695313 10.40632813 7.08890625 11.68765625 7.0703125 13.0078125 C7.04710938 13.99523437 7.02390625 14.98265625 7 16 C6.34 16 5.68 16 5 16 C4.67 11.71 4.34 7.42 4 3 C3.01 3 2.02 3 1 3 C0.67 7.29 0.34 11.58 0 16 C-0.66 16 -1.32 16 -2 16 C-2.05402274 13.89611431 -2.09280256 11.79183286 -2.125 9.6875 C-2.14820312 8.51574219 -2.17140625 7.34398438 -2.1953125 6.13671875 C-2 3 -2 3 0 0 Z " fill="#5F7A9B" transform="translate(68,91)"/>
<path d="M0 0 C1.32 0.66 2.64 1.32 4 2 C4.0270043 3.45823212 4.04639787 4.91660675 4.0625 6.375 C4.07410156 7.18710938 4.08570312 7.99921875 4.09765625 8.8359375 C4 11 4 11 3 13 C1.68 13 0.36 13 -1 13 C-2.17673198 10.64653604 -2.16623866 9.1193967 -2.1875 6.5 C-2.20167969 5.7059375 -2.21585937 4.911875 -2.23046875 4.09375 C-2 2 -2 2 0 0 Z " fill="#AED4E6" transform="translate(81,92)"/>
<path d="M0 0 C1.32 0.66 2.64 1.32 4 2 C4.125 9.75 4.125 9.75 3 12 C1.35 11.67 -0.3 11.34 -2 11 C-2.05399736 9.54207116 -2.09279177 8.08357288 -2.125 6.625 C-2.15980469 5.40683594 -2.15980469 5.40683594 -2.1953125 4.1640625 C-2 2 -2 2 0 0 Z " fill="#B0D6E8" transform="translate(103,92)"/>
<path d="M0 0 C2.31 0 4.62 0 7 0 C7 0.99 7 1.98 7 3 C6.01 3 5.02 3 4 3 C4 9.27 4 15.54 4 22 C3.34 22 2.68 22 2 22 C2 15.73 2 9.46 2 3 C1.34 3 0.68 3 0 3 C0 2.01 0 1.02 0 0 Z " fill="#587295" transform="translate(133,85)"/>
<path d="M0 0 C2.5 -0.3125 2.5 -0.3125 5 0 C5.66 0.66 6.32 1.32 7 2 C6.67 2.99 6.34 3.98 6 5 C5.34 4.34 4.68 3.68 4 3 C3.01 3 2.02 3 1 3 C-0.49297212 5.98594424 -0.11755228 8.70853624 0 12 C0.33 12.66 0.66 13.32 1 14 C3.02463255 14.65213292 3.02463255 14.65213292 5 15 C5 14.34 5 13.68 5 13 C5.66 13 6.32 13 7 13 C6.34 14.32 5.68 15.64 5 17 C2.6875 17.3125 2.6875 17.3125 0 17 C-2.2355543 14.68992722 -2.98779264 12.99577193 -3.02734375 9.76953125 C-2.66440668 5.72443267 -2.29902147 3.44853221 0 0 Z " fill="#506A8E" transform="translate(154,90)"/>
<path d="M0 0 C0.99 0.495 0.99 0.495 2 1 C2.59355614 3.64860427 2.74209269 6.29197322 3 9 C3.66 9 4.32 9 5 9 C5.12375 7.700625 5.2475 6.40125 5.375 5.0625 C5.5859375 2.84765625 5.5859375 2.84765625 6 1 C6.66 0.67 7.32 0.34 8 0 C7.40984815 5.50808397 6.43336231 10.64878069 5 16 C4.34 16 3.68 16 3 16 C-0.44419134 5.62642369 -0.44419134 5.62642369 0 0 Z " fill="#587295" transform="translate(89,91)"/>
<path d="M0 0 C1.32 0 2.64 0 4 0 C5.36952673 2.73905345 5.12621361 4.97087332 5 8 C4.67 8.66 4.34 9.32 4 10 C2.68 10 1.36 10 0 10 C-1.125 2.25 -1.125 2.25 0 0 Z " fill="#6985A5" transform="translate(21,91)"/>
<path d="M0 0 C0.33 0.66 0.66 1.32 1 2 C3.31 2 5.62 2 8 2 C8.33 1.34 8.66 0.68 9 0 C9 1.32 9 2.64 9 4 C6.36 4 3.72 4 1 4 C1.66 5.65 2.32 7.3 3 9 C3.99 9 4.98 9 6 9 C6.33 8.34 6.66 7.68 7 7 C7.66 7 8.32 7 9 7 C8.125 10.875 8.125 10.875 7 12 C4.5625 12.25 4.5625 12.25 2 12 C-0.13586678 8.79619983 -0.23132175 7.98060033 -0.125 4.3125 C-0.10695312 3.50425781 -0.08890625 2.69601563 -0.0703125 1.86328125 C-0.04710937 1.24839844 -0.02390625 0.63351563 0 0 Z " fill="#3B527A" transform="translate(140,95)"/>
<path d="M0 0 C3.3 0.33 6.6 0.66 10 1 C10 1.66 10 2.32 10 3 C7.36 3 4.72 3 2 3 C2.33 4.98 2.66 6.96 3 9 C4.32 9 5.64 9 7 9 C7.33 8.01 7.66 7.02 8 6 C8.33 6.99 8.66 7.98 9 9 C8.34 9.66 7.68 10.32 7 11 C4.5 10.8125 4.5 10.8125 2 10 C-0.4294516 6.3558226 -0.16179575 4.28758728 0 0 Z " fill="#445C82" transform="translate(117,96)"/>
<path d="M0 0 C2.64 0 5.28 0 8 0 C8 1.65 8 3.3 8 5 C7.34 4.67 6.68 4.34 6 4 C5.67 4.66 5.34 5.32 5 6 C3.68 6 2.36 6 1 6 C0.67 4.02 0.34 2.04 0 0 Z " fill="#A7CCE0" transform="translate(119,99)"/>
<path d="M0 0 C2.375 0.1875 2.375 0.1875 5 1 C6.4375 3.3125 6.4375 3.3125 7 6 C6.125 8.3125 6.125 8.3125 5 10 C4.34 7.69 3.68 5.38 3 3 C2.01 3.33 1.02 3.66 0 4 C-0.33 6.31 -0.66 8.62 -1 11 C-1.33 11 -1.66 11 -2 11 C-3.35384615 4.6 -3.35384615 4.6 -1.5625 1.5625 C-1.046875 1.046875 -0.53125 0.53125 0 0 Z " fill="#546E92" transform="translate(102,90)"/>
<path d="M0 0 C2.475 0.99 2.475 0.99 5 2 C4.67 3.32 4.34 4.64 4 6 C3.34 6 2.68 6 2 6 C1.67 7.65 1.34 9.3 1 11 C0.67 11 0.34 11 0 11 C-0.33 8.36 -0.66 5.72 -1 3 C-2.32 2.67 -3.64 2.34 -5 2 C-3.35 2 -1.7 2 0 2 C0 1.34 0 0.68 0 0 Z " fill="#9ABDD4" transform="translate(26,88)"/>
<path d="M0 0 C1.32 0.33 2.64 0.66 4 1 C3.01 1 2.02 1 1 1 C-0.00496852 4.01490557 -0.10335303 6.04181692 -0.0625 9.1875 C-0.04896484 10.53908203 -0.04896484 10.53908203 -0.03515625 11.91796875 C-0.02355469 12.60503906 -0.01195313 13.29210937 0 14 C-0.99 14.495 -0.99 14.495 -2 15 C-3.71535658 11.56928684 -3.4006478 7.75941181 -3 4 C-1.5 1.4375 -1.5 1.4375 0 0 Z " fill="#516A8E" transform="translate(80,90)"/>
<path d="M0 0 C0.33 0.66 0.66 1.32 1 2 C-0.65 2 -2.3 2 -4 2 C-4.66 4.31 -5.32 6.62 -6 9 C-6.99 8.67 -7.98 8.34 -9 8 C-9 6.35 -9 4.7 -9 3 C-7.68 3 -6.36 3 -5 3 C-5 2.34 -5 1.68 -5 1 C-3.35 0.67 -1.7 0.34 0 0 Z " fill="#5E799B" transform="translate(41,99)"/>
<path d="M0 0 C1.98 0.66 3.96 1.32 6 2 C5.67 3.32 5.34 4.64 5 6 C3.35 6.33 1.7 6.66 0 7 C-1.04449911 3.86650268 -0.93423645 3.01031744 0 0 Z " fill="#A4C8DD" transform="translate(31,96)"/>
<path d="M0 0 C1.32 0.33 2.64 0.66 4 1 C4.33 2.32 4.66 3.64 5 5 C2.69 5 0.38 5 -2 5 C-1.34 3.35 -0.68 1.7 0 0 Z " fill="#9EC1D7" transform="translate(143,92)"/>
<path d="M0 0 C1.32 0.66 2.64 1.32 4 2 C4 2.99 4 3.98 4 5 C2.02 5 0.04 5 -2 5 C-1.125 1.125 -1.125 1.125 0 0 Z " fill="#A4C8DD" transform="translate(121,92)"/>
<path d="M0 0 C0.4125 0.474375 0.825 0.94875 1.25 1.4375 C3.182185 3.16266518 4.48192275 3.56584875 7 4 C7 3.34 7 2.68 7 2 C7.66 2 8.32 2 9 2 C8.34 3.32 7.68 4.64 7 6 C4.625 6.1875 4.625 6.1875 2 6 C0 3 0 3 0 0 Z " fill="#476086" transform="translate(152,101)"/>
<path d="M0 0 C0.66 0 1.32 0 2 0 C1.125 3.875 1.125 3.875 0 5 C-1.66617115 5.04063832 -3.33388095 5.042721 -5 5 C-5.66 3.68 -6.32 2.36 -7 1 C-4.03 1.495 -4.03 1.495 -1 2 C-0.67 1.34 -0.34 0.68 0 0 Z " fill="#4C648A" transform="translate(147,102)"/>
<path d="M0 0 C1.32 0.33 2.64 0.66 4 1 C4 2.65 4 4.3 4 6 C2.68 5.67 1.36 5.34 0 5 C0 3.35 0 1.7 0 0 Z " fill="#4E688C" transform="translate(27,84)"/>
<path d="M0 0 C1.65 0 3.3 0 5 0 C5.33 1.32 5.66 2.64 6 4 C5.21625 3.79375 4.4325 3.5875 3.625 3.375 C2.75875 3.25125 1.8925 3.1275 1 3 C0.34 3.66 -0.32 4.32 -1 5 C-0.67 3.35 -0.34 1.7 0 0 Z " fill="#40577F" transform="translate(68,91)"/>
<path d="M0 0 C1.65 0 3.3 0 5 0 C5.33 1.65 5.66 3.3 6 5 C5.34 4.34 4.68 3.68 4 3 C1.39719432 3.32041397 1.39719432 3.32041397 -1 4 C-0.67 2.68 -0.34 1.36 0 0 Z " fill="#3D547C" transform="translate(57,91)"/>
</svg>
